<svg width="18" height="18" viewBox="0 0 18 18" fill="none" xmlns="http://www.w3.org/2000/svg">
<g clip-path="url(#clip0)">
<path d="M14.148 7.781L8.56899 11.108L3.09699 7.781L2.64199 10.622C2.64399 10.618 2.64799 10.615 2.65299 10.609C2.58799 10.718 2.55099 10.831 2.55099 10.946C2.55099 11.949 6.96899 15.04 8.37199 15.04C9.77599 15.04 14.695 11.949 14.695 10.946C14.695 10.837 14.659 10.732 14.603 10.414L14.148 7.781Z" fill="#F4AD2D"/>
<path d="M17.211 4.873L8.635 2.17L0.975 4.613C0.867 4.63 0.765 4.658 0.684 4.706C0.586 4.764 0.519 4.848 0.514 4.972C0.473 5.468 0 11.17 0 11.17L0.514 12.878L0.991 11.17L0.789 5.294L8.612 10.107L17.211 4.873ZM8.015 5.118H0.783L1.539 4.705H7.924C8.007 4.56 8.203 4.458 8.431 4.458C8.735 4.458 8.981 4.639 8.981 4.861C8.981 5.084 8.735 5.265 8.431 5.265C8.261 5.267 8.115 5.207 8.015 5.118Z" fill="#F4AD2D"/>
</g>
<defs>
<clipPath id="clip0">
<rect width="17.211" height="17.211" fill="white"/>
</clipPath>
</defs>
</svg>
