<svg width="512" height="512" viewBox="0 0 512 512" fill="none" xmlns="http://www.w3.org/2000/svg">
<path d="M211 271H301V301H211V271Z" fill="#F4AD2D"/>
<path d="M415.379 301H331V316C331 324.289 324.289 331 316 331H196C187.711 331 181 324.289 181 316V301H96.6211C77.2266 301 60.0742 288.637 53.9336 270.238L0 108.41V436C0 460.812 20.1875 481 45 481H467C491.812 481 512 460.812 512 436V108.422L458.062 270.238C451.926 288.637 434.773 301 415.379 301V301Z" fill="#F4AD2D"/>
<path d="M316 31H196C171.188 31 151 51.1875 151 76V91H25.8086L82.3828 260.746C84.4336 266.883 90.1602 271 96.6211 271H181V256C181 247.711 187.711 241 196 241H316C324.289 241 331 247.711 331 256V271H415.379C421.84 271 427.566 266.883 429.617 260.746L486.195 91H361V76C361 51.1875 340.812 31 316 31V31ZM181 91V76C181 67.7227 187.723 61 196 61H316C324.277 61 331 67.7227 331 76V91H181Z" fill="#F4AD2D"/>
</svg>
