<svg height="448pt" viewBox="0 -60 448 448" width="448pt" xmlns="http://www.w3.org/2000/svg"><path d="m392 96c0 4.417969-3.582031 8-8 8s-8-3.582031-8-8 3.582031-8 8-8 8 3.582031 8 8zm0 0"/><path d="m224 72c-57.4375 0-104 46.5625-104 104s46.5625 104 104 104 104-46.5625 104-104c-.066406-57.410156-46.589844-103.933594-104-104zm0 192c-48.601562 0-88-39.398438-88-88s39.398438-88 88-88 88 39.398438 88 88c-.058594 48.578125-39.421875 87.941406-88 88zm0 0"/><path d="m296 176c0 39.765625-32.234375 72-72 72s-72-32.234375-72-72 32.234375-72 72-72 72 32.234375 72 72zm0 0"/><path d="m40 24h48v16h-48zm0 0"/><path d="m448 80c0-13.253906-10.746094-24-24-24h-88c-2.863281.003906-5.511719-1.519531-6.945312-4l-22.78125-39.871094c-4.277344-7.480468-12.226563-12.1093748-20.839844-12.128906h-122.867188c-8.609375.015625-16.554687 4.628906-20.839844 12.097656l-22.78125 39.902344c-1.433593 2.480469-4.082031 4.003906-6.945312 4h-88c-13.253906 0-24 10.746094-24 24v224c0 13.253906 10.746094 24 24 24h400c13.253906 0 24-10.746094 24-24zm-376 200c0 4.417969-3.582031 8-8 8s-8-3.582031-8-8v-192c0-4.417969 3.582031-8 8-8s8 3.582031 8 8zm152 16c-66.273438 0-120-53.726562-120-120s53.726562-120 120-120 120 53.726562 120 120c-.074219 66.242188-53.757812 119.925781-120 120zm160-176c-13.253906 0-24-10.746094-24-24s10.746094-24 24-24 24 10.746094 24 24-10.746094 24-24 24zm0 0"/><path d="m376 32h32v8h-32zm0 0"/></svg>