<svg width="448" height="448" viewBox="0 0 448 448" fill="none" xmlns="http://www.w3.org/2000/svg">
<g clip-path="url(#clip0)">
<path d="M392 156C392 160.418 388.418 164 384 164C379.582 164 376 160.418 376 156C376 151.582 379.582 148 384 148C388.418 148 392 151.582 392 156Z" fill="#F4AD2D"/>
<path d="M224 132C166.562 132 120 178.562 120 236C120 293.438 166.562 340 224 340C281.438 340 328 293.438 328 236C327.934 178.59 281.41 132.066 224 132ZM224 324C175.398 324 136 284.602 136 236C136 187.398 175.398 148 224 148C272.602 148 312 187.398 312 236C311.941 284.578 272.578 323.941 224 324Z" fill="#F4AD2D"/>
<path d="M296 236C296 275.766 263.766 308 224 308C184.234 308 152 275.766 152 236C152 196.234 184.234 164 224 164C263.766 164 296 196.234 296 236Z" fill="#F4AD2D"/>
<path d="M40 84H88V100H40V84Z" fill="#F4AD2D"/>
<path d="M448 140C448 126.746 437.254 116 424 116H336C333.137 116.004 330.488 114.48 329.055 112L306.273 72.1289C301.996 64.6484 294.047 60.0195 285.434 60H162.566C153.957 60.0156 146.012 64.6289 141.727 72.0977L118.945 112C117.512 114.48 114.863 116.004 112 116H24C10.7461 116 0 126.746 0 140V364C0 377.254 10.7461 388 24 388H424C437.254 388 448 377.254 448 364V140ZM72 340C72 344.418 68.418 348 64 348C59.582 348 56 344.418 56 340V148C56 143.582 59.582 140 64 140C68.418 140 72 143.582 72 148V340ZM224 356C157.727 356 104 302.273 104 236C104 169.727 157.727 116 224 116C290.273 116 344 169.727 344 236C343.926 302.242 290.242 355.926 224 356ZM384 180C370.746 180 360 169.254 360 156C360 142.746 370.746 132 384 132C397.254 132 408 142.746 408 156C408 169.254 397.254 180 384 180Z" fill="#F4AD2D"/>
<path d="M376 92H408V100H376V92Z" fill="#F4AD2D"/>
</g>
<defs>
<clipPath id="clip0">
<rect width="448" height="448" fill="white"/>
</clipPath>
</defs>
</svg>
