<svg height="448pt" viewBox="0 -56 448 448" width="448pt" xmlns="http://www.w3.org/2000/svg"><path d="m184 48h96c4.417969 0 8-3.582031 8-8s-3.582031-8-8-8h-96c-4.417969 0-8 3.582031-8 8s3.582031 8 8 8zm0 0"/><path d="m48 112h64v48h-64zm0 0"/><path d="m272 128c0 8.835938-7.164062 16-16 16s-16-7.164062-16-16 7.164062-16 16-16 16 7.164062 16 16zm0 0"/><path d="m368 212.097656 66.527344 51.902344h13.472656v-192h-13.472656l-66.527344 51.902344zm56-116.097656c0-4.417969 3.582031-8 8-8s8 3.582031 8 8v144c0 4.417969-3.582031 8-8 8s-8-3.582031-8-8zm0 0"/><path d="m48 328h80v8h-80zm0 0"/><path d="m178.808594 312.503906 62.742187 23.496094h78.449219v-328c0-4.417969-3.582031-8-8-8h-145.375c-2.121094.0078125-4.152344.851562-5.65625 2.34375l-43.3125 43.3125c-1.5 1.5-3.535156 2.34375-5.65625 2.34375h-112v264h176c.957031 0 1.910156.167969 2.808594.503906zm5.191406-296.503906h96c13.253906 0 24 10.746094 24 24s-10.746094 24-24 24h-96c-13.253906 0-24-10.746094-24-24s10.746094-24 24-24zm104 112c0 17.671875-14.328125 32-32 32s-32-14.328125-32-32 14.328125-32 32-32 32 14.328125 32 32zm-256-24c0-4.417969 3.582031-8 8-8h80c4.417969 0 8 3.582031 8 8v64c0 4.417969-3.582031 8-8 8h-80c-4.417969 0-8-3.582031-8-8zm8 80h80c4.417969 0 8 3.582031 8 8s-3.582031 8-8 8h-80c-4.417969 0-8-3.582031-8-8s3.582031-8 8-8zm0 24h80c4.417969 0 8 3.582031 8 8s-3.582031 8-8 8h-80c-4.417969 0-8-3.582031-8-8s3.582031-8 8-8zm0 88h-16c-4.417969 0-8-3.582031-8-8s3.582031-8 8-8h16c4.417969 0 8 3.582031 8 8s-3.582031 8-8 8zm24-8c0-4.417969 3.582031-8 8-8h224c4.417969 0 8 3.582031 8 8s-3.582031 8-8 8h-224c-4.417969 0-8-3.582031-8-8zm0 0"/><path d="m336 128h16v80h-16zm0 0"/></svg>