<svg width="448" height="448" viewBox="0 0 448 448" fill="none" xmlns="http://www.w3.org/2000/svg">
<path d="M184 104H280C284.418 104 288 100.418 288 96C288 91.582 284.418 88 280 88H184C179.582 88 176 91.582 176 96C176 100.418 179.582 104 184 104Z" fill="#F4AD2D"/>
<path d="M48 168H112V216H48V168Z" fill="#F4AD2D"/>
<path d="M272 184C272 192.836 264.836 200 256 200C247.164 200 240 192.836 240 184C240 175.164 247.164 168 256 168C264.836 168 272 175.164 272 184Z" fill="#F4AD2D"/>
<path d="M368 268.098L434.527 320H448V128H434.527L368 179.902V268.098ZM424 152C424 147.582 427.582 144 432 144C436.418 144 440 147.582 440 152V296C440 300.418 436.418 304 432 304C427.582 304 424 300.418 424 296V152Z" fill="#F4AD2D"/>
<path d="M48 384H128V392H48V384Z" fill="#F4AD2D"/>
<path d="M178.809 368.504L241.551 392H320V64C320 59.582 316.418 56 312 56H166.625C164.504 56.0078 162.473 56.8516 160.969 58.3438L117.656 101.656C116.156 103.156 114.121 104 112 104H0V368H176C176.957 368 177.91 368.168 178.809 368.504ZM184 72H280C293.254 72 304 82.7461 304 96C304 109.254 293.254 120 280 120H184C170.746 120 160 109.254 160 96C160 82.7461 170.746 72 184 72ZM288 184C288 201.672 273.672 216 256 216C238.328 216 224 201.672 224 184C224 166.328 238.328 152 256 152C273.672 152 288 166.328 288 184ZM32 160C32 155.582 35.582 152 40 152H120C124.418 152 128 155.582 128 160V224C128 228.418 124.418 232 120 232H40C35.582 232 32 228.418 32 224V160ZM40 240H120C124.418 240 128 243.582 128 248C128 252.418 124.418 256 120 256H40C35.582 256 32 252.418 32 248C32 243.582 35.582 240 40 240ZM40 264H120C124.418 264 128 267.582 128 272C128 276.418 124.418 280 120 280H40C35.582 280 32 276.418 32 272C32 267.582 35.582 264 40 264ZM40 352H24C19.582 352 16 348.418 16 344C16 339.582 19.582 336 24 336H40C44.418 336 48 339.582 48 344C48 348.418 44.418 352 40 352ZM64 344C64 339.582 67.582 336 72 336H296C300.418 336 304 339.582 304 344C304 348.418 300.418 352 296 352H72C67.582 352 64 348.418 64 344Z" fill="#F4AD2D"/>
<path d="M336 184H352V264H336V184Z" fill="#F4AD2D"/>
</svg>
