<svg width="512" height="512" viewBox="0 0 512 512" fill="none" xmlns="http://www.w3.org/2000/svg">
<g clip-path="url(#clip0)">
<path d="M171.08 438.248C102.239 434.353 47.4256 377.118 47.4256 307.313C47.4256 234.995 106.256 176.16 178.568 176.16C210.909 176.16 241.963 188.027 266.012 209.574C293.786 234.416 309.72 270.044 309.72 307.312C309.72 338.567 298.508 368.663 278.504 392.222C292.691 401.414 308.979 406.905 325.955 408.158C346.384 378.418 357.145 343.718 357.145 307.312C357.145 268.309 344.797 231.261 321.438 200.177C302.877 175.468 278.174 155.907 249.997 143.606C234.38 136.775 218.051 132.282 201.232 130.163C235.228 105.137 248.229 84.1615 248.229 65.8671C248.229 43.9137 230.432 26.1174 208.479 26.1174C196.55 26.1174 185.857 31.3787 178.572 39.6987C171.286 31.3787 160.592 26.1174 148.664 26.1174C126.711 26.1174 108.915 43.9137 108.915 65.8671C108.915 84.1645 121.919 105.143 155.927 130.174C68.1156 141.335 0 216.519 0 307.313C0 405.775 80.1046 485.881 178.568 485.881C192.181 485.881 205.545 484.37 218.555 481.393C200.68 469.573 184.626 455.023 171.08 438.248V438.248Z" fill="#F4AD2D"/>
<path d="M333.433 128.746C319.819 128.746 306.455 130.257 293.445 133.234C311.32 145.054 327.374 159.604 340.921 176.379C409.762 180.274 464.575 237.509 464.575 307.313C464.575 379.631 405.746 438.466 333.434 438.466C301.095 438.466 270.039 426.599 245.989 405.052C218.215 380.209 202.281 344.581 202.281 307.313C202.281 276.058 213.493 245.961 233.497 222.403C219.31 213.211 203.022 207.72 186.046 206.467C165.616 236.207 154.856 270.906 154.856 307.312C154.856 346.317 167.203 383.363 190.564 414.448C209.124 439.157 233.827 458.718 262.004 471.019C284.553 480.881 308.582 485.88 333.434 485.88C431.896 485.88 512.001 405.775 512.001 307.312C512 208.851 431.895 128.746 333.433 128.746V128.746Z" fill="#F4AD2D"/>
</g>
<defs>
<clipPath id="clip0">
<rect width="512" height="512" fill="white"/>
</clipPath>
</defs>
</svg>
