<svg width="31" height="31" viewBox="0 0 31 31" fill="none" xmlns="http://www.w3.org/2000/svg">
<g clip-path="url(#clip0)">
<path d="M15.25 0C6.841 0 0 6.841 0 15.25C0 23.659 6.841 30.5 15.25 30.5C23.659 30.5 30.5 23.659 30.5 15.25C30.5 6.841 23.659 0 15.25 0ZM15.25 27.5C8.495 27.5 3 22.005 3 15.25C3 8.495 8.495 3 15.25 3C22.005 3 27.5 8.495 27.5 15.25C27.5 22.005 22.005 27.5 15.25 27.5ZM13.25 6.166H17.25V19H13.25V6.166ZM13.25 21.168H17.25V24.334H13.25V21.168Z" fill="#EE0000"/>
</g>
<defs>
<clipPath id="clip0">
<rect width="30.5" height="30.5" fill="white"/>
</clipPath>
</defs>
</svg>
